<?xml version="1.0" encoding="UTF-8" standalone="no"?>
<svg width="64px" height="16px" viewBox="0 0 64 16" version="1.1" xmlns="http://www.w3.org/2000/svg" xmlns:xlink="http://www.w3.org/1999/xlink">
    <!-- Generator: Sketch 3.7 (28169) - http://www.bohemiancoding.com/sketch -->
    <title>cd-icons</title>
    <desc>Created with Sketch.</desc>
    <defs></defs>
    <g id="Page-1" stroke="none" stroke-width="1" fill="none" fill-rule="evenodd">
        <g id="cd-icons">
            <g id="Group" transform="translate(8.000000, 8.000000) scale(1, -1) translate(-8.000000, -8.000000) translate(0.000000, 3.000000)" fill="#AAAAAA">
                <polygon id="Shape" points="8 9.6 0.3 1.9 1.7 0.4 8 6.7 14.3 0.4 15.7 1.9"></polygon>
            </g>
            <g id="Group" transform="translate(16.000000, 0.000000)" fill="#6C7079">
                <path d="M15,3 L8.4,3 L5.7,0.3 C5.5,0.1 5.3,0 5,0 L1,0 C0.4,0 0,0.4 0,1 L0,15 C0,15.6 0.4,16 1,16 L15,16 C15.6,16 16,15.6 16,15 L16,4 C16,3.4 15.6,3 15,3 L15,3 Z" id="Shape"></path>
            </g>
            <g id="Group" transform="translate(32.000000, 0.000000)" fill="#6C7079">
                <path d="M15.8,7.4 C15.6,7.2 15.3,7 15,7 L4,7 C3.6,7 3.2,7.2 3.1,7.6 L0.1,14.6 C-0.1,15.2 0.1,16 1,16 L12,16 C12.4,16 12.8,15.8 12.9,15.4 L15.9,8.4 C16.1,8.1 16,7.7 15.8,7.4 L15.8,7.4 Z" id="Shape"></path>
                <path d="M1.2,6.8 C1.7,5.7 2.8,5 4,5 L13,5 L13,3 C13,2.4 12.6,2 12,2 L6.4,2 L4.7,0.3 C4.5,0.1 4.3,0 4,0 L1,0 C0.4,0 0,0.4 0,1 L0,9.7 L1.2,6.8 L1.2,6.8 Z" id="Shape"></path>
            </g>
            <g id="Group" transform="translate(48.000000, 0.000000)" fill="#6C7079">
                <path d="M15,0 L1,0 C0.4,0 0,0.4 0,1 L0,15 C0,15.6 0.4,16 1,16 L15,16 C15.6,16 16,15.6 16,15 L16,1 C16,0.4 15.6,0 15,0 L15,0 Z M6,4 C6.6,4 7,4.4 7,5 C7,5.6 6.6,6 6,6 C5.4,6 5,5.6 5,5 C5,4.4 5.4,4 6,4 L6,4 Z M3,12 L5,8 L7,10 L10,6 L13,12 L3,12 L3,12 Z" id="Shape"></path>
            </g>
        </g>
    </g>
</svg>