<?xml version="1.0" encoding="UTF-8" standalone="no"?>
<svg width="25px" height="25px" viewBox="0 0 25 25" version="1.1" xmlns="http://www.w3.org/2000/svg" xmlns:xlink="http://www.w3.org/1999/xlink">
    <!-- Generator: Sketch 3.6.1 (26313) - http://www.bohemiancoding.com/sketch -->
    <title>icon_close_gray</title>
    <desc>Created with Sketch.</desc>
    <defs></defs>
    <g id="Page-1" stroke="none" stroke-width="1" fill="none" fill-rule="evenodd">
        <g id="icon_close_gray" fill="#AAAAAA">
            <path d="M17.2358203,6.31992188 L12.5348828,11.0230469 L7.90175781,6.38554688 C7.47410156,5.95898437 6.78066406,5.95898437 6.35519531,6.38554688 C5.92753906,6.81210937 5.92753906,7.51210938 6.35519531,7.93867188 L10.9883203,12.5652344 L6.32238281,17.2355469 C5.89253906,17.6621094 5.89253906,18.3621094 6.32238281,18.7996094 C6.75332031,19.2261719 7.45113281,19.2261719 7.88207031,18.7996094 L12.5480078,14.1292969 L17.1811328,18.7667969 C17.6087891,19.1933594 18.3022266,19.1933594 18.7287891,18.7667969 C19.1564453,18.3402344 19.1564453,17.6402344 18.7287891,17.2136719 L14.0945703,12.5871094 L18.7944141,7.88398438 C19.2242578,7.44648438 19.2242578,6.75742188 18.7944141,6.31992188 C18.3634766,5.89335937 17.6667578,5.89335937 17.2358203,6.31992188 Z" id="Path"></path>
        </g>
    </g>
</svg>